<svg xmlns="http://www.w3.org/2000/svg" width="40" height="40" viewBox="0 0 40 40">
  <path id="github" d="M20,0A20.26,20.26,0,0,0,0,20.506,20.47,20.47,0,0,0,13.678,39.964c1,.19,1.322-.446,1.322-.986V35.16c-5.563,1.241-6.722-2.42-6.722-2.42a5.4,5.4,0,0,0-2.222-3c-1.815-1.273.138-1.246.138-1.246A4.211,4.211,0,0,1,9.26,30.608c1.783,3.134,4.678,2.228,5.82,1.7a4.392,4.392,0,0,1,1.27-2.741c-4.442-.521-9.112-2.28-9.112-10.135a8.049,8.049,0,0,1,2.06-5.5,7.549,7.549,0,0,1,.2-5.427s1.68-.55,5.5,2.1a18.506,18.506,0,0,1,10.015,0c3.818-2.652,5.5-2.1,5.5-2.1a7.542,7.542,0,0,1,.2,5.427,8.027,8.027,0,0,1,2.058,5.5c0,7.876-4.678,9.61-9.132,10.118A4.967,4.967,0,0,1,25,33.351v5.627c0,.545.32,1.186,1.335.984A20.472,20.472,0,0,0,40,20.506,20.258,20.258,0,0,0,20,0Z"/>
</svg>
