<svg xmlns="http://www.w3.org/2000/svg" width="117.315" height="120.817" viewBox="0 0 117.315 120.817">
  <path id="share" d="M24.441,35.238c13.5,0,24.441,11.271,24.441,25.17s-10.945,25.17-24.441,25.17S0,74.308,0,60.409,10.945,35.238,24.441,35.238ZM78.807,95.974a20.425,20.425,0,0,0-.6,4.707c0,11.12,8.755,20.136,19.553,20.136s19.553-9.016,19.553-20.136-8.755-20.136-19.553-20.136a19.181,19.181,0,0,0-14.347,6.549L56.59,72.36a35.458,35.458,0,0,1-4.61,8.88L78.807,95.974Zm38.509-75.838C117.315,9.016,108.561,0,97.763,0S78.21,9.016,78.21,20.136a20.425,20.425,0,0,0,.6,4.707L51.98,39.578a35.212,35.212,0,0,1,4.61,8.88L83.416,33.723a19.181,19.181,0,0,0,14.347,6.549c10.8,0,19.553-9.016,19.553-20.136Z" fill="#a057ff"/>
</svg>
