<svg xmlns="http://www.w3.org/2000/svg" width="40" height="40" viewBox="0 0 40 40">
  <path id="twitter" d="M40,6.983a14.072,14.072,0,0,1-4.713,1.589A10.02,10.02,0,0,0,38.9,2.986a14.73,14.73,0,0,1-5.212,2.451,7.576,7.576,0,0,0-5.99-3.189c-5.3,0-9.192,6.083-7.995,12.4C12.88,14.225,6.833,10.205,2.785,4.1.635,8.634,1.67,14.572,5.323,17.578a7.05,7.05,0,0,1-3.715-1.263c-.09,4.678,2.635,9.055,6.582,10.029a6.737,6.737,0,0,1-3.707.172c1.043,4.011,4.073,6.93,7.667,7.012A14.379,14.379,0,0,1,0,37.711a20.211,20.211,0,0,0,12.58,4.537c15.237,0,23.845-15.835,23.325-30.037A19.339,19.339,0,0,0,40,6.983Z" transform="translate(0 -2.248)"/>
</svg>
